HIERARCHY
ROOT joint_Root
{
  OFFSET 0 0 0
  CHANNELS 6 Xposition Yposition Zposition Zrotation Xrotation Yrotation
  JOINT Hips
  {
    OFFSET 0.847027 93.984 -452.225
    CHANNELS 6 Xposition Yposition Zposition Zrotation Xrotation Yrotation
    JOINT Spine
    {
      OFFSET 15.7357 0 0
      CHANNELS 6 Xposition Yposition Zposition Zrotation Xrotation Yrotation
      JOINT Chest
      {
        OFFSET 8.98455 -0.406207 0
        CHANNELS 6 Xposition Yposition Zposition Zrotation Xrotation Yrotation
        JOINT Neck
        {
          OFFSET 16.3773 0 0
          CHANNELS 6 Xposition Yposition Zposition Zrotation Xrotation Yrotation
          JOINT Head
          {
            OFFSET 6.45672 0 0
            CHANNELS 6 Xposition Yposition Zposition Zrotation Xrotation Yrotation
            End Site
            {
              OFFSET 0 0 0
            }
          }
        }
        JOINT Shoulder_L
        {
          OFFSET 12.9942 -0.242716 4.98039
          CHANNELS 6 Xposition Yposition Zposition Zrotation Xrotation Yrotation
          JOINT UpperArm_L
          {
            OFFSET 5.34809 0 0
            CHANNELS 6 Xposition Yposition Zposition Zrotation Xrotation Yrotation
            JOINT LowerArm_L
            {
              OFFSET 24.3286 1.87007e-05 0
              CHANNELS 6 Xposition Yposition Zposition Zrotation Xrotation Yrotation
              JOINT Hand_L
              {
                OFFSET 22.2916 0 0
                CHANNELS 6 Xposition Yposition Zposition Zrotation Xrotation Yrotation
                End Site
                {
                  OFFSET 0 0 0
                }
              }
            }
          }
        }
        JOINT Shoulder_R
        {
          OFFSET 12.9945 -0.242716 -4.98039
          CHANNELS 6 Xposition Yposition Zposition Zrotation Xrotation Yrotation
          JOINT UpperArm_R
          {
            OFFSET -5.34813 0 0
            CHANNELS 6 Xposition Yposition Zposition Zrotation Xrotation Yrotation
            JOINT LowerArm_R
            {
              OFFSET -24.3289 0.000322201 0
              CHANNELS 6 Xposition Yposition Zposition Zrotation Xrotation Yrotation
              JOINT Hand_R
              {
                OFFSET -22.2915 -0.000108084 0
                CHANNELS 6 Xposition Yposition Zposition Zrotation Xrotation Yrotation
                End Site
                {
                  OFFSET 0 0 0
                }
              }
            }
          }
        }
      }
    }
    JOINT UpperLeg_L
    {
      OFFSET -2.19248 -6.46944 0
      CHANNELS 6 Xposition Yposition Zposition Zrotation Xrotation Yrotation
      JOINT LowerLeg_L
      {
        OFFSET 39.0811 0 -1.23785e-05
        CHANNELS 6 Xposition Yposition Zposition Zrotation Xrotation Yrotation
        JOINT Foot_L
        {
          OFFSET 40.9854 0 -1.26872e-05
          CHANNELS 6 Xposition Yposition Zposition Zrotation Xrotation Yrotation
          JOINT Toes_L
          {
            OFFSET 11.7543 0 0
            CHANNELS 6 Xposition Yposition Zposition Zrotation Xrotation Yrotation
            End Site
            {
              OFFSET 0 0 0
            }
          }
        }
      }
    }
    JOINT UpperLeg_R
    {
      OFFSET -2.19251 6.46944 0
      CHANNELS 6 Xposition Yposition Zposition Zrotation Xrotation Yrotation
      JOINT LowerLeg_R
      {
        OFFSET -39.0811 -0.00228153 -0.0401928
        CHANNELS 6 Xposition Yposition Zposition Zrotation Xrotation Yrotation
        JOINT Foot_R
        {
          OFFSET -40.9854 0 0
          CHANNELS 6 Xposition Yposition Zposition Zrotation Xrotation Yrotation
          JOINT Toes_R
          {
            OFFSET -11.7543 0 0
            CHANNELS 6 Xposition Yposition Zposition Zrotation Xrotation Yrotation
            End Site
            {
              OFFSET 0 0 0
            }
          }
        }
      }
    }
  }
}
MOTION
Frames:	8
Frame Time:	0.0333333
0 0 0 0 0 -0 2.71162 86.0845 -67.1847 87.6271 -2.69474 -9.7926 15.7357 5.1072e-06 -5.51765e-07 86.3801 80.6541 -87.0825 8.98455 -0.406207 -4.3199e-07 10.8833 -1.19057 -1.29069 16.3773 -1.3905e-06 -6.99897e-07 -2.79574 -1.8388 1.34562 6.45672 -1.25837e-06 -1.02172e-07 -22.2214 -2.80461 6.12688 12.9942 -0.242716 4.98039 -89.8477 -0.611054 -90.9924 5.34809 -7.22636e-06 -6.2814e-07 -66.7991 -7.99937 -15.5595 24.3286 1.87007e-05 4.90208e-06 -14.5194 -5.95464 -68.1648 22.2916 -9.88446e-07 4.63217e-06 28.7211 5.66379 -16.5139 12.9945 -0.242716 -4.98039 88.967 8.80339 -98.2804 -5.34813 -1.25947e-06 -3.79883e-06 -61.4992 2.09532 -9.44765 -24.3289 0.000322201 -8.65921e-06 -8.59355 -5.47837 -57.7137 -22.2915 -0.000108084 -4.47941e-06 18.1613 5.43281 -4.03457 -2.19248 -6.46944 -1.22534e-07 -177.819 -5.18339 -30.4022 39.0811 -6.73843e-06 -1.23785e-05 0.0510353 -0.0301682 52.8045 40.9854 -6.48686e-06 -1.26872e-05 1.20431 -1.22521 -79.4984 11.7543 -2.30145e-07 3.05095e-06 -0.133855 -0.251224 -17.7184 -2.19251 6.46944 -1.45247e-06 -179.988 8.84909 136.634 -39.0811 -0.00228153 -0.0401928 0.385915 -0.0557057 82.6614 -40.9854 7.72618e-06 5.99936e-06 -1.46626 -6.15363 -54.2556 -11.7543 -5.6619e-06 -5.58687e-06 0.317776 -0.376577 -20.1976 
0 0 0 0 0 -0 2.75605 87.6348 -61.0535 87.6716 -2.71682 -11.0419 15.7357 5.1072e-06 -5.51765e-07 86.2359 80.7138 -86.6022 8.98455 -0.406207 -4.3199e-07 10.7643 -1.22009 -0.617327 16.3773 -1.3905e-06 -6.99897e-07 -3.30017 -1.84992 0.961305 6.45672 -1.25837e-06 -1.02172e-07 -23.414 -2.90678 5.80913 12.9942 -0.242716 4.98039 -89.57 -1.70512 -90.8439 5.34809 -7.22636e-06 -6.2814e-07 -67.236 -5.47949 -19.0492 24.3286 1.87007e-05 4.90208e-06 -17.1645 -5.39612 -73.0639 22.2916 -9.88446e-07 4.63217e-06 29.1524 5.66928 -17.2687 12.9945 -0.242716 -4.98039 89.0093 8.28761 -98.159 -5.34813 -1.25947e-06 -3.79883e-06 -61.4929 1.11836 -8.99837 -24.3289 0.000322201 -8.65921e-06 -9.08865 -5.47137 -59.1999 -22.2915 -0.000108084 -4.47941e-06 18.3777 5.43873 -4.24049 -2.19248 -6.46944 -1.22533e-07 -177.557 -6.2484 -24.9207 39.0811 -6.73843e-06 -1.23785e-05 0.0502881 -0.0357952 47.7218 40.9854 -6.48686e-06 -1.26872e-05 0.518819 0.787601 -77.2688 11.7543 -2.30145e-07 3.05095e-06 0.145912 -0.244285 -20.8537 -2.19251 6.46944 -1.45247e-06 -177.376 10.077 133.437 -39.0811 -0.00228153 -0.0401928 0.244038 -0.0818455 72.8473 -40.9854 7.72618e-06 5.99936e-06 -2.77681 -4.76956 -58.5373 -11.7543 -5.6619e-06 -5.58687e-06 0.323437 -0.38373 -20.2644 
0 0 0 0 0 -0 2.82788 89.5724 -54.8408 88.0976 -3.01678 -12.563 15.7357 5.1072e-06 -5.51765e-07 86.8323 80.9976 -86.9697 8.98455 -0.406207 -4.3199e-07 10.2113 -0.991368 -0.186035 16.3773 -1.3905e-06 -6.99897e-07 -3.47192 -1.9362 0.99249 6.45672 -1.25837e-06 -1.02172e-07 -23.9868 -2.84729 5.35242 12.9942 -0.242716 4.98039 -89.5705 -1.70875 -90.886 5.34809 -7.22636e-06 -6.2814e-07 -66.8437 -2.40589 -18.6723 24.3286 1.87007e-05 4.90208e-06 -16.604 -3.98267 -76.8916 22.2916 -9.88446e-07 4.63217e-06 27.766 5.67276 -17.8374 12.9945 -0.242716 -4.98039 89.0428 7.85494 -98.0302 -5.34813 -1.25947e-06 -3.79883e-06 -61.2249 0.647402 -9.76406 -24.3289 0.000322201 -8.65921e-06 -8.84654 -5.10935 -60.218 -22.2915 -0.000108084 -4.47941e-06 18.8833 5.43853 -4.23426 -2.19248 -6.46944 -1.22534e-07 -177.63 -6.99454 -21.572 39.0811 -6.73843e-06 -1.23785e-05 0.0780034 -0.0685765 44.2038 40.9854 -6.48686e-06 -1.26872e-05 -0.964044 2.97008 -69.0316 11.7543 -2.30145e-07 3.05095e-06 0.377295 -0.751544 -29.2369 -2.19251 6.46944 -1.45247e-06 -175.107 11.0783 133.027 -39.0811 -0.00228153 -0.0401928 0.120373 -0.0848377 57.2444 -40.9854 7.72618e-06 5.99936e-06 -4.44768 -1.60602 -61.1499 -11.7543 -5.6619e-06 -5.58687e-06 0.304264 -0.359542 -20.0377 
0 0 0 0 0 -0 2.78546 90.9974 -48.4169 89.0607 -2.94925 -13.5548 15.7357 5.1072e-06 -5.51765e-07 86.6535 81.1696 -86.7115 8.98455 -0.406207 -4.3199e-07 9.86534 -1.02564 -0.0273529 16.3773 -1.3905e-06 -6.99897e-07 -3.50566 -1.98403 1.46242 6.45672 -1.25837e-06 -1.02172e-07 -24.1538 -2.59178 4.82131 12.9942 -0.242716 4.98039 -89.6258 -1.48726 -90.874 5.34809 -7.22636e-06 -6.2814e-07 -67.6503 0.367603 -15.756 24.3286 1.87007e-05 4.90208e-06 -14.7059 -3.31359 -77.5793 22.2916 -9.88446e-07 4.63217e-06 26.0853 5.67194 -17.6832 12.9945 -0.242716 -4.98039 89.0972 7.24225 -97.8745 -5.34813 -1.25947e-06 -3.79883e-06 -61.0642 0.150805 -12.1506 -24.3289 0.000322201 -8.65921e-06 -8.99613 -5.00839 -61.1219 -22.2915 -0.000108084 -4.47941e-06 18.7107 5.43182 -4.00213 -2.19248 -6.46944 -1.22534e-07 -177.855 -7.99629 -19.9997 39.0811 -6.73843e-06 -1.23785e-05 0.133177 -0.126176 43.3732 40.9854 -6.48686e-06 -1.26872e-05 -2.58317 6.27179 -57.1753 11.7543 -2.30145e-07 3.05095e-06 0.565416 -1.46425 -40.3265 -2.19251 6.46944 -1.45247e-06 -173.361 12.8868 135.831 -39.0811 -0.00228153 -0.0401928 0.04601 -0.0684465 36.9957 -40.9854 7.72618e-06 5.99936e-06 -7.9787 2.25173 -61.7056 -11.7543 -5.6619e-06 -5.58687e-06 0.301949 -0.356636 -20.0103 
0 0 0 0 0 -0 2.65058 91.4493 -41.3008 91.0023 -2.28706 -12.7151 15.7357 5.1072e-06 -5.51765e-07 85.664 80.8669 -85.858 8.98455 -0.406207 -4.3199e-07 10.4478 -1.37617 -0.262042 16.3773 -1.3905e-06 -6.99897e-07 -2.93799 -2.20726 1.95216 6.45672 -1.25837e-06 -1.02172e-07 -24.0091 -2.44216 4.07717 12.9942 -0.242716 4.98039 -89.7373 -1.03212 -90.7129 5.34809 -7.22636e-06 -6.2814e-07 -68.8837 3.64256 -11.5405 24.3286 1.87007e-05 4.90208e-06 -14.2144 -3.96511 -74.7317 22.2916 -9.88446e-07 4.63217e-06 25.3438 5.66514 -16.6754 12.9945 -0.242716 -4.98039 89.1884 6.322 -97.6688 -5.34813 -1.25947e-06 -3.79883e-06 -60.7174 -0.638222 -15.4371 -24.3289 0.000322201 -8.65921e-06 -9.0176 -4.69849 -62.6965 -22.2915 -0.000108084 -4.47941e-06 18.6163 5.43404 -4.07847 -2.19248 -6.46944 -1.22534e-07 -178.103 -7.08736 -17.7174 39.0811 -6.73843e-06 -1.23785e-05 0.203051 -0.189225 44.7947 40.9854 -6.48686e-06 -1.26872e-05 -4.91319 10.3783 -45.6916 11.7543 -2.30145e-07 3.05095e-06 0.599803 -1.73748 -44.4643 -2.19251 6.46944 -1.45247e-06 -172.742 16.2719 141.38 -39.0811 -0.00228153 -0.0401928 0.0198086 -0.0671188 17.9252 -40.9854 7.72618e-06 5.99936e-06 -10.8492 5.45347 -62.6544 -11.7543 -5.6619e-06 -5.58687e-06 0.33533 -0.398843 -20.406 
0 0 0 0 0 -0 2.25004 90.9046 -33.945 92.5987 -0.924627 -12.0758 15.7357 5.1072e-06 -5.51765e-07 85.4131 80.6265 -85.5687 8.98455 -0.406207 -4.3199e-07 10.9216 -1.49245 -0.168307 16.3773 -1.3905e-06 -6.99897e-07 -1.67296 -2.82361 2.58456 6.45672 -1.25837e-06 -1.02172e-07 -24.0349 -2.67279 3.07951 12.9942 -0.242716 4.98039 -89.9554 -0.173616 -90.5706 5.34809 -7.22636e-06 -6.2814e-07 -69.8575 6.79724 -7.08146 24.3286 1.87007e-05 4.90208e-06 -12.8487 -4.9032 -69.453 22.2916 -9.88446e-07 4.63217e-06 24.1467 5.65728 -15.7351 12.9945 -0.242716 -4.98039 89.2222 5.7067 -97.2258 -5.34813 -1.25947e-06 -3.79883e-06 -59.3137 -2.27839 -20.2118 -24.3289 0.000322201 -8.65921e-06 -8.93995 -4.32089 -64.4052 -22.2915 -0.000108084 -4.47941e-06 18.2026 5.42803 -3.87049 -2.19248 -6.46944 -1.22534e-07 -177.649 -3.13045 -17.7555 39.0811 -6.73843e-06 -1.23785e-05 0.26541 -0.210322 50.2688 40.9854 -6.48686e-06 -1.26872e-05 -8.0739 13.381 -37.7689 11.7543 -2.30145e-07 3.05095e-06 0.50434 -1.16504 -35.7381 -2.19251 6.46944 -1.45247e-06 -173.352 17.2308 142.405 -39.0811 -0.00228153 -0.0401928 0.000576126 0.00265912 14.2062 -40.9854 7.72618e-06 5.99936e-06 -8.38014 2.65194 -64.8867 -11.7543 -5.6619e-06 -5.58687e-06 0.331069 -0.393408 -20.3552 
0 0 0 0 0 -0 1.68587 89.3694 -27.0823 92.8397 0.266353 -13.6923 15.7357 5.1072e-06 -5.51765e-07 87.9074 81.1999 -87.6455 8.98455 -0.406207 -4.3199e-07 9.82447 -0.634045 0.577939 16.3773 -1.3905e-06 -6.99897e-07 -0.0282667 -3.55701 3.37126 6.45672 -1.25837e-06 -1.02172e-07 -23.555 -3.32574 1.65337 12.9942 -0.242716 4.98039 -90.3174 1.18606 -90.0252 5.34809 -7.22636e-06 -6.2814e-07 -69.8561 10.414 -2.73098 24.3286 1.87007e-05 4.90208e-06 -11.0427 -5.74508 -62.8418 22.2916 -9.88446e-07 4.63217e-06 22.6203 5.65231 -15.237 12.9945 -0.242716 -4.98039 89.1017 5.93845 -96.3826 -5.34813 -1.25947e-06 -3.79883e-06 -56.2346 -4.6735 -26.7558 -24.3289 0.000322201 -8.65921e-06 -9.07372 -4.17666 -65.4796 -22.2915 -0.000108084 -4.47941e-06 18.4839 5.40721 -3.17482 -2.19248 -6.46944 -1.22534e-07 -175.937 -0.350879 -23.6079 39.0811 -6.73843e-06 -1.23785e-05 0.400134 -0.222949 60.7355 40.9854 -6.48686e-06 -1.26872e-05 -12.1036 13.5159 -33.6453 11.7543 -2.30145e-07 3.05095e-06 0.184136 -0.315867 -22.0729 -2.19251 6.46944 -1.45247e-06 -173.838 13.103 135.588 -39.0811 -0.00228153 -0.0401928 0.166341 -0.317295 27.0085 -40.9854 7.72618e-06 5.99936e-06 6.13154 -3.53862 -56.9114 -11.7543 -5.6619e-06 -5.58687e-06 0.298226 -0.351974 -19.9665 
0 0 0 0 0 -0 1.2578 86.9432 -20.0201 92.6191 0.676432 -11.7034 15.7357 5.1072e-06 -5.51765e-07 92.0271 80.361 -91.2709 8.98455 -0.406207 -4.3199e-07 11.4962 0.700985 1.44141 16.3773 -1.3905e-06 -6.99897e-07 0.235844 -3.9143 3.19842 6.45672 -1.25837e-06 -1.02172e-07 -21.9433 -4.49494 0.632364 12.9942 -0.242716 4.98039 -90.66 2.39117 -89.5663 5.34809 -7.22636e-06 -6.2814e-07 -70.3244 12.6664 2.2516 24.3286 1.87007e-05 4.90208e-06 -9.13506 -6.21367 -56.0483 22.2916 -9.88446e-07 4.63217e-06 21.5851 5.6563 -15.6503 12.9945 -0.242716 -4.98039 89.0112 6.15574 -95.8559 -5.34813 -1.25947e-06 -3.79883e-06 -52.6302 -8.10702 -35.4515 -24.3289 0.000322201 -8.65921e-06 -9.03625 -4.31293 -64.9633 -22.2915 -0.000108084 -4.47941e-06 19.697 5.40469 -3.08847 -2.19248 -6.46944 -1.22533e-07 -174.697 -0.585573 -27.5559 39.0811 -6.73843e-06 -1.23785e-05 0.545611 -0.157008 73.9474 40.9854 -6.48686e-06 -1.26872e-05 -9.90651 7.94222 -38.9642 11.7543 -2.30145e-07 3.05095e-06 0.161106 -0.272315 -21.3328 -2.19251 6.46944 -1.45247e-06 -177.718 8.37466 133.684 -39.0811 -0.00228153 -0.0401928 0.170177 -0.177548 42.7883 -40.9854 7.72618e-06 5.99936e-06 2.62651 -8.60148 -59.1252 -11.7543 -5.6619e-06 -5.58687e-06 0.0372446 -0.0416986 -16.985 
